<svg id="svg" version="1.1" width="400" height="300" viewBox="0 0 400 300" xmlns="http://www.w3.org/2000/svg" xmlns:xlink="http://www.w3.org/1999/xlink" ><g id="svgg"><path id="path0" d="M244.861 110.481 C 244.284 110.642,243.136 110.892,242.311 111.037 C 239.038 111.612,238.697 111.708,238.349 112.147 C 238.151 112.398,237.795 112.529,237.559 112.439 C 237.323 112.348,236.483 112.601,235.693 113.001 C 234.903 113.401,234.017 113.728,233.723 113.728 C 233.429 113.728,232.825 114.066,232.380 114.479 C 231.935 114.891,231.252 115.229,230.864 115.229 C 230.475 115.229,230.158 115.343,230.158 115.482 C 230.158 115.621,229.698 115.982,229.137 116.284 C 228.480 116.638,228.175 116.988,228.282 117.266 C 228.407 117.593,228.291 117.649,227.802 117.494 C 227.435 117.377,227.157 117.418,227.157 117.589 C 227.157 117.754,226.920 117.964,226.632 118.056 C 225.496 118.416,221.603 122.548,221.661 123.331 C 221.693 123.764,221.652 123.859,221.564 123.556 C 221.480 123.267,221.340 123.031,221.254 123.031 C 220.878 123.031,219.068 125.331,219.062 125.816 C 219.058 126.110,218.844 126.431,218.587 126.530 C 218.330 126.628,218.189 126.890,218.274 127.111 C 218.359 127.332,218.299 127.592,218.141 127.690 C 217.984 127.788,217.854 127.724,217.854 127.550 C 217.854 127.375,217.704 127.232,217.519 127.232 C 217.327 127.232,217.243 127.540,217.323 127.955 C 217.421 128.472,217.346 128.633,217.057 128.523 C 216.796 128.422,216.654 128.597,216.654 129.018 C 216.654 129.375,216.534 129.593,216.386 129.502 C 216.239 129.411,216.034 129.673,215.930 130.085 C 215.827 130.496,215.610 130.833,215.448 130.833 C 215.286 130.833,215.154 131.103,215.154 131.433 C 215.154 131.763,215.019 132.033,214.854 132.033 C 214.689 132.033,214.554 132.371,214.554 132.783 C 214.554 133.196,214.419 133.533,214.254 133.533 C 214.089 133.533,213.953 133.924,213.953 134.402 C 213.953 134.896,213.760 135.344,213.503 135.442 C 213.256 135.537,213.053 135.881,213.053 136.207 C 213.053 136.532,212.918 136.882,212.753 136.984 C 212.588 137.086,212.453 137.490,212.453 137.881 C 212.453 138.272,212.271 138.774,212.048 138.997 C 211.228 139.817,211.127 143.572,211.915 143.957 C 215.143 145.534,221.351 146.636,226.407 146.530 C 227.892 146.498,229.917 146.316,230.908 146.126 C 231.898 145.935,233.215 145.788,233.833 145.801 C 234.452 145.813,234.959 145.691,234.959 145.530 C 234.959 145.368,235.431 145.236,236.009 145.236 C 236.587 145.236,237.059 145.107,237.059 144.950 C 237.059 144.792,237.533 144.574,238.113 144.466 C 238.692 144.357,239.240 144.148,239.331 144.002 C 239.421 143.856,239.753 143.736,240.069 143.736 C 240.384 143.736,241.380 143.398,242.282 142.986 C 243.184 142.573,244.062 142.236,244.232 142.236 C 244.403 142.236,244.468 142.043,244.378 141.807 C 244.259 141.498,244.381 141.423,244.818 141.537 C 245.211 141.640,245.718 141.422,246.264 140.915 C 246.727 140.486,247.220 140.135,247.360 140.135 C 247.979 140.135,250.849 137.856,250.708 137.476 C 250.606 137.201,250.711 137.127,251.030 137.249 C 251.508 137.433,256.564 132.782,256.564 132.157 C 256.564 131.997,256.834 131.671,257.164 131.433 C 257.494 131.195,257.764 130.828,257.764 130.616 C 257.764 130.405,257.899 130.233,258.065 130.233 C 258.230 130.233,258.365 130.026,258.365 129.773 C 258.365 129.520,258.567 129.236,258.815 129.141 C 259.062 129.046,259.265 128.796,259.265 128.587 C 259.265 128.377,259.473 128.032,259.728 127.821 C 260.001 127.594,260.144 127.116,260.075 126.659 C 260.011 126.231,260.014 126.050,260.084 126.257 C 260.279 126.840,260.765 126.698,260.765 126.057 C 260.765 125.740,260.866 125.436,260.990 125.381 C 261.342 125.225,262.866 122.032,262.866 121.451 C 262.866 121.165,263.001 120.930,263.166 120.930 C 263.331 120.930,263.466 120.618,263.466 120.237 C 263.466 119.856,263.664 119.282,263.906 118.962 C 264.149 118.642,264.351 117.949,264.357 117.422 C 264.362 116.895,264.513 116.374,264.692 116.263 C 264.884 116.144,264.976 115.371,264.917 114.370 C 264.805 112.488,264.263 111.906,262.255 111.510 C 261.683 111.397,260.540 111.169,259.715 111.003 C 255.467 110.148,247.112 109.855,244.861 110.481 M199.399 139.756 C 198.904 140.013,198.432 140.304,198.350 140.404 C 198.130 140.669,196.164 141.728,193.166 143.197 C 190.716 144.397,190.547 144.538,190.727 145.236 C 191.103 146.694,191.211 153.651,190.864 154.069 C 190.613 154.371,190.655 154.516,191.036 154.662 C 191.495 154.838,191.489 154.894,190.969 155.288 C 190.456 155.676,190.450 155.721,190.913 155.729 C 191.508 155.740,193.754 156.830,194.514 157.477 C 194.800 157.720,195.314 157.840,195.669 157.747 C 196.188 157.612,196.280 157.689,196.157 158.160 C 196.056 158.547,196.158 158.740,196.466 158.740 C 196.720 158.740,197.585 159.212,198.389 159.790 C 199.194 160.368,200.121 160.840,200.451 160.840 C 201.114 160.840,201.263 160.376,200.675 160.139 C 200.469 160.055,200.667 159.977,201.116 159.964 C 201.715 159.946,201.886 159.820,201.758 159.486 C 201.638 159.174,201.722 159.086,202.027 159.203 C 202.270 159.296,202.927 159.098,203.485 158.762 C 204.044 158.426,205.008 157.914,205.626 157.624 C 206.245 157.335,206.752 156.995,206.752 156.868 C 206.752 156.742,206.910 156.639,207.103 156.639 C 207.297 156.639,207.969 156.403,208.596 156.114 L 209.737 155.589 209.745 149.962 C 209.750 145.879,209.657 144.336,209.403 144.336 C 208.843 144.336,206.752 143.344,206.752 143.078 C 206.752 142.945,206.482 142.836,206.152 142.836 C 205.821 142.836,205.551 142.701,205.551 142.536 C 205.551 142.371,205.358 142.236,205.123 142.236 C 204.887 142.236,204.516 142.067,204.298 141.860 C 203.517 141.122,202.221 140.598,202.006 140.933 C 201.882 141.126,201.562 141.157,201.200 141.012 C 200.625 140.780,200.629 140.762,201.301 140.561 C 202.235 140.282,201.507 139.803,200.453 140.002 C 199.844 140.117,199.811 140.096,200.280 139.891 C 200.599 139.752,200.734 139.560,200.579 139.465 C 200.424 139.369,199.893 139.500,199.399 139.756 M219.805 154.032 C 218.650 154.170,217.470 154.408,217.183 154.561 C 216.897 154.714,216.463 154.839,216.219 154.839 C 215.743 154.839,213.426 155.564,212.088 156.131 C 211.216 156.501,211.122 160.343,211.960 161.400 C 212.376 161.926,213.043 163.834,213.049 164.516 C 213.051 164.805,213.188 165.041,213.353 165.041 C 213.518 165.041,213.653 165.303,213.653 165.624 C 213.653 165.944,213.768 166.277,213.909 166.364 C 214.050 166.451,214.408 167.168,214.707 167.957 C 215.005 168.747,215.396 169.492,215.576 169.613 C 216.174 170.015,216.654 169.850,216.654 169.242 C 216.654 168.909,216.854 168.642,217.104 168.642 C 217.384 168.642,217.554 168.359,217.554 167.892 C 217.554 167.479,217.704 167.142,217.887 167.142 C 218.096 167.142,218.146 166.849,218.022 166.354 C 217.872 165.756,217.924 165.604,218.237 165.724 C 218.495 165.823,218.867 165.471,219.227 164.787 C 219.545 164.185,220.379 162.753,221.080 161.605 C 221.782 160.457,222.356 159.342,222.356 159.129 C 222.356 158.915,222.558 158.740,222.806 158.740 C 223.053 158.740,223.256 158.564,223.256 158.349 C 223.256 157.797,223.962 156.344,224.231 156.341 C 224.355 156.340,224.456 156.069,224.456 155.739 C 224.456 155.406,224.656 155.139,224.906 155.139 C 225.186 155.139,225.356 154.856,225.356 154.393 C 225.356 153.555,224.346 153.489,219.805 154.032 M240.453 157.242 C 240.091 157.388,239.551 157.880,239.252 158.335 C 238.529 159.439,237.420 161.463,237.181 162.116 C 237.076 162.404,236.870 162.641,236.724 162.641 C 236.578 162.641,236.459 162.823,236.459 163.047 C 236.459 163.270,236.122 163.818,235.709 164.263 C 235.296 164.708,234.959 165.335,234.959 165.657 C 234.959 165.978,234.824 166.242,234.659 166.242 C 234.494 166.242,234.359 166.565,234.359 166.960 C 234.359 167.355,234.156 167.755,233.908 167.850 C 233.661 167.945,233.458 168.230,233.458 168.483 C 233.458 168.735,233.323 168.942,233.158 168.942 C 232.993 168.942,232.858 169.134,232.858 169.367 C 232.858 169.601,232.757 169.837,232.633 169.892 C 232.509 169.947,232.165 170.465,231.868 171.043 C 230.795 173.131,229.995 174.519,229.332 175.444 C 228.961 175.963,228.657 176.602,228.657 176.866 C 228.657 177.129,228.522 177.344,228.357 177.344 C 228.192 177.344,228.057 177.678,228.057 178.085 C 228.057 178.649,227.939 178.781,227.564 178.637 C 227.143 178.475,227.097 178.619,227.243 179.622 C 227.337 180.267,227.346 180.559,227.263 180.270 C 227.060 179.561,226.557 179.602,226.557 180.327 C 226.557 180.648,226.422 180.993,226.257 181.095 C 226.092 181.197,225.967 181.509,225.980 181.788 C 225.995 182.101,226.062 182.151,226.155 181.920 C 226.392 181.332,226.857 181.481,226.857 182.146 C 226.857 182.476,227.049 182.746,227.285 182.746 C 227.521 182.746,227.979 183.083,228.303 183.496 C 228.628 183.908,229.102 184.246,229.358 184.246 C 229.613 184.246,229.906 184.381,230.008 184.546 C 230.110 184.711,230.455 184.846,230.775 184.846 C 231.096 184.846,231.358 184.981,231.358 185.146 C 231.358 185.311,231.502 185.446,231.678 185.446 C 231.854 185.446,232.428 185.767,232.953 186.158 C 234.539 187.340,236.759 187.371,236.759 186.211 C 236.759 185.983,236.860 185.751,236.984 185.696 C 237.269 185.570,238.195 184.052,238.646 182.971 C 238.836 182.517,239.097 182.146,239.226 182.146 C 239.354 182.146,239.460 181.943,239.460 181.695 C 239.460 181.448,239.595 181.245,239.760 181.245 C 239.925 181.245,240.060 180.990,240.060 180.677 C 240.060 180.365,240.263 180.031,240.510 179.936 C 240.758 179.841,240.960 179.489,240.960 179.154 C 240.960 178.819,241.095 178.545,241.260 178.545 C 241.425 178.545,241.560 178.336,241.560 178.081 C 241.560 177.826,241.898 177.280,242.311 176.867 C 242.723 176.454,243.061 175.899,243.061 175.634 C 243.061 175.368,243.398 174.708,243.811 174.167 C 244.224 173.626,244.564 173.073,244.568 172.938 C 244.571 172.803,244.839 172.356,245.161 171.943 C 245.484 171.530,245.751 170.971,245.755 170.700 C 245.758 170.429,245.964 170.129,246.212 170.034 C 246.459 169.939,246.662 169.587,246.662 169.252 C 246.662 168.916,246.797 168.642,246.962 168.642 C 247.127 168.642,247.262 168.494,247.262 168.313 C 247.262 168.133,247.566 167.561,247.937 167.042 C 248.841 165.780,249.362 164.762,249.362 164.257 C 249.362 164.028,249.497 163.841,249.662 163.841 C 250.150 163.841,250.005 162.994,249.466 162.693 C 249.176 162.530,249.045 162.219,249.151 161.943 C 249.268 161.637,249.126 161.406,248.747 161.285 C 248.425 161.183,248.162 161.002,248.162 160.882 C 248.162 160.762,247.490 160.265,246.668 159.777 C 245.846 159.289,245.171 158.788,245.167 158.665 C 245.164 158.541,244.925 158.439,244.636 158.438 C 244.347 158.437,243.571 158.104,242.911 157.697 C 241.594 156.886,241.418 156.853,240.453 157.242 M249.662 162.308 C 249.662 162.456,249.876 162.658,250.137 162.759 C 250.871 163.040,250.944 162.979,250.455 162.491 C 249.945 161.980,249.662 161.916,249.662 162.308 M199.495 163.166 C 199.226 163.455,198.338 164.289,197.520 165.021 C 196.487 165.944,196.078 166.518,196.177 166.900 C 196.275 167.274,196.189 167.404,195.910 167.305 C 195.270 167.077,194.080 168.314,192.364 170.990 C 191.498 172.339,190.668 173.443,190.519 173.443 C 190.370 173.443,190.248 173.619,190.248 173.835 C 190.248 174.344,188.706 177.464,188.390 177.594 C 188.256 177.649,188.147 178.013,188.147 178.402 C 188.147 178.791,188.012 179.193,187.847 179.295 C 187.682 179.397,187.547 179.877,187.547 180.363 C 187.547 180.848,187.412 181.245,187.247 181.245 C 187.082 181.245,186.947 181.490,186.947 181.788 C 186.947 182.087,186.748 182.593,186.506 182.913 C 186.264 183.234,186.061 184.070,186.056 184.771 C 186.051 185.473,185.931 186.047,185.789 186.047 C 185.006 186.047,184.987 200.255,185.769 201.721 C 185.922 202.008,186.047 202.727,186.047 203.318 C 186.047 203.910,186.249 204.597,186.497 204.844 C 186.744 205.092,186.947 205.614,186.947 206.005 C 186.947 206.396,187.082 206.800,187.247 206.902 C 187.412 207.004,187.547 207.417,187.547 207.820 C 187.547 208.223,187.669 208.552,187.819 208.552 C 187.969 208.552,188.326 209.299,188.613 210.212 C 188.900 211.125,189.251 211.943,189.391 212.030 C 189.532 212.117,189.647 212.381,189.647 212.617 C 189.647 212.853,189.842 213.284,190.079 213.575 C 190.317 213.866,191.296 215.263,192.255 216.681 C 194.877 220.557,196.545 222.397,197.237 222.178 C 197.710 222.028,197.774 222.105,197.609 222.626 C 197.499 222.972,197.528 223.256,197.673 223.256 C 197.818 223.256,198.220 223.520,198.568 223.844 C 199.893 225.079,200.446 224.940,202.628 222.821 C 203.741 221.741,204.656 220.755,204.661 220.631 C 204.667 220.507,205.342 219.662,206.161 218.755 C 206.981 217.847,207.651 216.937,207.651 216.731 C 207.652 216.405,208.293 215.524,209.319 214.439 C 209.494 214.254,210.033 213.260,210.519 212.228 C 211.005 211.197,211.503 210.353,211.627 210.353 C 211.751 210.353,211.853 210.081,211.853 209.748 C 211.853 209.416,211.972 208.910,212.116 208.623 C 212.813 207.245,213.353 205.776,213.353 205.259 C 213.353 204.944,213.488 204.603,213.653 204.501 C 213.818 204.399,213.953 203.811,213.953 203.193 C 213.953 202.576,214.073 201.942,214.219 201.785 C 215.167 200.766,215.167 186.931,214.219 185.911 C 214.073 185.755,213.953 185.121,213.953 184.504 C 213.953 183.886,213.818 183.298,213.653 183.196 C 213.488 183.094,213.353 182.630,213.353 182.165 C 213.353 181.699,213.151 181.151,212.903 180.945 C 212.656 180.740,212.453 180.316,212.453 180.004 C 212.453 179.692,212.329 179.202,212.178 178.916 C 212.027 178.629,211.683 177.854,211.414 177.194 C 211.144 176.534,210.774 175.724,210.591 175.394 C 210.408 175.064,210.111 174.529,209.931 174.205 C 209.750 173.881,209.434 173.433,209.227 173.208 C 209.021 172.984,208.852 172.607,208.852 172.372 C 208.852 172.136,208.717 171.943,208.552 171.943 C 208.387 171.943,208.252 171.765,208.252 171.547 C 208.252 171.329,207.914 170.857,207.502 170.499 C 207.089 170.140,206.752 169.703,206.752 169.527 C 206.752 169.351,206.178 168.593,205.476 167.843 C 202.271 164.416,202.181 164.348,201.828 165.116 C 201.733 165.323,201.728 165.198,201.816 164.840 C 202.116 163.619,200.295 162.305,199.495 163.166 M259.865 174.644 C 259.865 174.974,259.730 175.244,259.565 175.244 C 259.400 175.244,259.265 175.446,259.265 175.694 C 259.265 175.941,259.062 176.144,258.815 176.144 C 258.567 176.144,258.365 176.406,258.365 176.726 C 258.365 177.047,258.230 177.392,258.065 177.494 C 257.899 177.596,257.764 177.884,257.764 178.134 C 257.764 178.383,257.596 178.776,257.389 179.006 C 256.456 180.047,256.264 180.350,256.264 180.783 C 256.264 181.037,256.163 181.247,256.039 181.249 C 255.482 181.257,254.634 183.680,255.080 183.987 C 255.410 184.214,255.361 184.243,254.877 184.108 C 254.375 183.967,254.131 184.138,253.726 184.913 C 253.444 185.454,252.753 186.774,252.192 187.847 L 251.170 189.797 251.842 189.968 C 253.048 190.275,258.668 189.910,259.511 189.471 C 259.953 189.240,260.686 189.050,261.140 189.049 C 261.594 189.048,261.965 188.912,261.965 188.747 C 261.965 188.582,262.438 188.447,263.016 188.447 C 263.739 188.447,264.066 188.310,264.066 188.006 C 264.066 187.738,264.242 187.633,264.516 187.738 C 265.046 187.942,265.189 185.319,264.666 184.996 C 264.501 184.894,264.366 184.362,264.366 183.813 C 264.366 183.264,264.164 182.428,263.918 181.955 C 263.671 181.482,263.469 180.867,263.468 180.588 C 263.467 180.309,263.331 179.997,263.166 179.895 C 263.001 179.793,262.866 179.460,262.866 179.155 C 262.866 178.188,261.344 175.571,260.885 175.747 C 260.561 175.871,260.509 175.697,260.654 174.975 C 260.801 174.239,260.738 174.044,260.353 174.044 C 260.065 174.044,259.865 174.290,259.865 174.644 M228.357 181.713 C 228.357 181.951,228.222 182.146,228.057 182.146 C 227.892 182.146,227.757 181.867,227.757 181.528 C 227.757 181.188,227.892 180.993,228.057 181.095 C 228.222 181.197,228.357 181.475,228.357 181.713 " stroke="none" fill="#000000" fill-rule="evenodd"></path><path id="path1" d="M199.741 75.362 C 198.560 76.048,193.248 81.698,193.248 82.269 C 193.248 82.407,193.147 82.521,193.023 82.522 C 192.899 82.523,192.191 83.544,191.448 84.791 C 190.705 86.038,189.802 87.556,189.440 88.165 C 189.078 88.774,188.698 89.634,188.595 90.077 C 188.493 90.519,188.215 91.042,187.978 91.239 C 187.741 91.435,187.547 91.834,187.547 92.125 C 187.547 92.651,186.803 95.328,186.338 96.474 C 186.204 96.804,186.004 97.614,185.894 98.275 C 185.784 98.935,185.579 100.083,185.438 100.825 C 185.104 102.586,185.115 110.153,185.454 112.078 C 186.112 115.809,186.820 118.489,187.275 118.965 C 187.424 119.122,187.547 119.481,187.547 119.765 C 187.547 120.585,189.644 125.089,191.094 127.382 C 191.825 128.537,192.633 129.820,192.890 130.233 C 193.545 131.283,197.884 135.882,199.190 136.909 C 200.204 137.707,200.781 137.548,202.200 136.079 C 202.914 135.339,203.564 134.734,203.644 134.734 C 203.856 134.734,205.179 133.130,206.967 130.705 C 207.828 129.538,208.794 128.239,209.114 127.819 C 210.023 126.626,211.253 124.314,211.253 123.798 C 211.253 123.541,211.366 123.331,211.504 123.331 C 211.642 123.331,211.999 122.554,212.296 121.605 C 212.594 120.656,212.945 119.610,213.076 119.280 C 215.943 112.059,216.247 103.848,213.952 95.574 C 213.769 94.914,213.509 93.968,213.373 93.473 C 212.907 91.770,211.758 88.984,211.356 88.582 C 211.135 88.361,210.874 87.862,210.776 87.473 C 210.678 87.083,210.408 86.692,210.175 86.603 C 209.943 86.513,209.752 86.219,209.752 85.949 C 209.752 85.679,209.413 85.033,208.998 84.514 C 208.583 83.995,208.133 83.433,207.999 83.264 C 207.865 83.095,207.251 82.223,206.634 81.326 C 205.475 79.642,201.007 75.012,200.555 75.028 C 200.415 75.033,200.049 75.183,199.741 75.362 M144.834 109.729 C 144.747 109.817,143.890 109.996,142.930 110.127 C 138.071 110.793,135.034 111.933,135.034 113.091 C 135.034 113.782,135.153 114.307,136.133 117.929 C 136.848 120.571,140.410 128.045,141.367 128.911 C 141.680 129.194,141.935 129.600,141.935 129.814 C 141.935 130.028,142.112 130.311,142.329 130.443 C 142.545 130.575,142.926 130.983,143.176 131.350 C 144.840 133.791,149.593 138.055,152.651 139.851 C 153.369 140.272,154.197 140.812,154.492 141.051 C 157.209 143.251,165.162 145.787,171.493 146.473 C 174.926 146.846,182.580 146.283,183.437 145.595 C 183.634 145.437,184.269 145.235,184.846 145.147 C 188.058 144.656,189.937 143.866,189.359 143.252 C 189.221 143.105,189.035 142.446,188.945 141.785 C 188.668 139.754,188.417 138.511,188.158 137.884 C 188.022 137.554,187.671 136.609,187.377 135.784 C 186.593 133.578,184.143 128.917,182.676 126.841 C 180.568 123.859,175.810 118.830,175.097 118.830 C 174.921 118.830,174.567 118.593,174.311 118.305 C 173.706 117.623,171.750 116.099,170.932 115.672 C 165.154 112.655,164.260 112.264,160.840 111.254 C 156.108 109.857,145.699 108.865,144.834 109.729 M169.542 153.634 C 168.635 153.780,167.284 154.055,166.542 154.244 C 165.799 154.433,164.786 154.661,164.291 154.751 C 163.796 154.841,163.256 155.013,163.091 155.134 C 162.926 155.255,162.362 155.436,161.838 155.535 C 160.045 155.874,152.933 159.331,151.634 160.495 C 150.168 161.809,148.252 163.241,147.962 163.241 C 147.783 163.241,147.637 163.342,147.636 163.466 C 147.636 163.590,146.657 164.710,145.461 165.956 C 141.486 170.095,139.638 172.946,136.814 179.295 C 135.230 182.854,134.515 187.847,135.590 187.847 C 135.925 187.847,136.282 187.982,136.384 188.147 C 136.486 188.312,137.007 188.447,137.542 188.447 C 138.077 188.447,138.643 188.568,138.800 188.716 C 140.157 189.993,153.125 190.711,156.494 189.695 C 156.987 189.547,158.470 189.190,159.790 188.903 C 162.504 188.313,162.656 188.261,165.341 187.001 C 166.414 186.498,167.629 185.946,168.042 185.775 C 168.725 185.491,169.777 184.880,172.477 183.196 C 173.006 182.866,173.440 182.494,173.441 182.371 C 173.443 182.247,173.584 182.146,173.756 182.146 C 173.928 182.146,174.264 181.977,174.503 181.770 C 175.739 180.702,178.841 177.559,179.895 176.307 C 182.257 173.502,182.669 172.976,183.527 171.673 C 184.005 170.947,184.496 170.204,184.618 170.023 C 185.054 169.374,187.847 163.024,187.847 162.681 C 187.847 162.489,187.966 162.098,188.112 161.811 C 188.505 161.037,189.047 158.558,189.047 157.535 C 189.047 156.891,189.195 156.633,189.572 156.615 C 189.991 156.597,190.006 156.557,189.647 156.420 C 189.400 156.326,189.130 156.162,189.047 156.055 C 188.965 155.948,188.087 155.640,187.097 155.371 C 186.107 155.102,184.249 154.599,182.969 154.252 C 180.319 153.535,172.411 153.171,169.542 153.634 " stroke="none" fill="#ffffff" fill-rule="evenodd"></path><path id="path2" d="M245.311 109.662 C 228.016 112.237,213.045 126.183,210.699 141.904 C 210.332 144.370,209.129 144.089,202.973 140.102 C 199.790 138.040,200.084 138.102,198.693 139.189 C 197.105 140.429,192.671 142.983,191.345 143.420 C 189.888 143.901,189.832 144.087,190.155 147.352 C 190.303 148.850,190.314 151.180,190.180 152.532 C 189.841 155.932,189.886 156.025,192.418 157.202 C 194.818 158.317,199.550 161.284,199.550 161.673 C 199.550 161.809,198.571 162.861,197.374 164.011 C 192.184 169.001,188.580 174.600,186.572 180.795 C 184.765 186.368,184.437 188.391,184.448 193.864 C 184.457 198.438,184.582 199.585,185.496 203.451 C 187.186 210.600,190.960 217.271,196.444 222.802 C 200.134 226.524,199.600 226.402,202.242 224.122 C 207.318 219.743,211.670 212.932,213.980 205.755 C 218.422 191.954,214.379 175.740,203.835 165.071 C 200.144 161.336,200.202 161.838,203.226 159.856 C 208.668 156.288,210.653 155.801,210.653 158.032 C 210.653 160.540,214.799 170.893,215.952 171.263 C 216.272 171.366,218.097 168.483,220.555 163.991 C 221.097 163.001,221.768 161.853,222.046 161.440 C 222.974 160.065,226.557 153.663,226.557 153.381 C 226.557 152.386,218.512 153.261,213.295 154.824 C 209.948 155.827,210.091 156.036,210.151 150.221 C 210.214 144.187,210.097 144.364,213.390 145.332 C 221.503 147.717,226.753 147.921,234.959 146.170 C 245.090 144.008,254.533 137.341,260.353 128.243 C 263.159 123.857,265.819 116.914,265.953 113.629 L 266.017 112.078 263.583 111.262 C 258.416 109.528,250.727 108.855,245.311 109.662 M256.114 110.433 C 257.269 110.580,258.890 110.837,259.715 111.003 C 260.540 111.169,261.683 111.397,262.255 111.510 C 264.263 111.906,264.805 112.488,264.917 114.370 C 264.976 115.371,264.884 116.144,264.692 116.263 C 264.513 116.374,264.362 116.895,264.357 117.422 C 264.351 117.949,264.149 118.642,263.906 118.962 C 263.664 119.282,263.466 119.856,263.466 120.237 C 263.466 120.618,263.331 120.930,263.166 120.930 C 263.001 120.930,262.866 121.165,262.866 121.451 C 262.866 122.032,261.342 125.225,260.990 125.381 C 260.866 125.436,260.765 125.740,260.765 126.057 C 260.765 126.698,260.279 126.840,260.084 126.257 C 260.014 126.050,260.011 126.231,260.075 126.659 C 260.144 127.116,260.001 127.594,259.728 127.821 C 259.473 128.032,259.265 128.377,259.265 128.587 C 259.265 128.796,259.062 129.046,258.815 129.141 C 258.567 129.236,258.365 129.520,258.365 129.773 C 258.365 130.026,258.230 130.233,258.065 130.233 C 257.899 130.233,257.764 130.405,257.764 130.616 C 257.764 130.828,257.494 131.195,257.164 131.433 C 256.834 131.671,256.564 131.997,256.564 132.157 C 256.564 132.782,251.508 137.433,251.030 137.249 C 250.711 137.127,250.606 137.201,250.708 137.476 C 250.849 137.856,247.979 140.135,247.360 140.135 C 247.220 140.135,246.727 140.486,246.264 140.915 C 245.718 141.422,245.211 141.640,244.818 141.537 C 244.381 141.423,244.259 141.498,244.378 141.807 C 244.468 142.043,244.403 142.236,244.232 142.236 C 244.062 142.236,243.184 142.573,242.282 142.986 C 241.380 143.398,240.384 143.736,240.069 143.736 C 239.753 143.736,239.421 143.856,239.331 144.002 C 239.240 144.148,238.692 144.357,238.113 144.466 C 237.533 144.574,237.059 144.792,237.059 144.950 C 237.059 145.107,236.587 145.236,236.009 145.236 C 235.431 145.236,234.959 145.368,234.959 145.530 C 234.959 145.691,234.452 145.813,233.833 145.801 C 233.215 145.788,231.898 145.935,230.908 146.126 C 225.511 147.166,216.340 146.119,211.915 143.957 C 211.127 143.572,211.228 139.817,212.048 138.997 C 212.271 138.774,212.453 138.272,212.453 137.881 C 212.453 137.490,212.588 137.086,212.753 136.984 C 212.918 136.882,213.053 136.532,213.053 136.207 C 213.053 135.881,213.256 135.537,213.503 135.442 C 213.760 135.344,213.953 134.896,213.953 134.402 C 213.953 133.924,214.089 133.533,214.254 133.533 C 214.419 133.533,214.554 133.196,214.554 132.783 C 214.554 132.371,214.689 132.033,214.854 132.033 C 215.019 132.033,215.154 131.763,215.154 131.433 C 215.154 131.103,215.286 130.833,215.448 130.833 C 215.610 130.833,215.827 130.496,215.930 130.085 C 216.034 129.673,216.239 129.411,216.386 129.502 C 216.534 129.593,216.654 129.375,216.654 129.018 C 216.654 128.597,216.796 128.422,217.057 128.523 C 217.346 128.633,217.421 128.472,217.323 127.955 C 217.243 127.540,217.327 127.232,217.519 127.232 C 217.704 127.232,217.854 127.375,217.854 127.550 C 217.854 127.724,217.984 127.788,218.141 127.690 C 218.299 127.592,218.359 127.332,218.274 127.111 C 218.189 126.890,218.330 126.628,218.587 126.530 C 218.844 126.431,219.058 126.110,219.062 125.816 C 219.068 125.331,220.878 123.031,221.254 123.031 C 221.340 123.031,221.480 123.267,221.564 123.556 C 221.652 123.859,221.693 123.764,221.661 123.331 C 221.603 122.548,225.496 118.416,226.632 118.056 C 226.920 117.964,227.157 117.754,227.157 117.589 C 227.157 117.418,227.435 117.377,227.802 117.494 C 228.291 117.649,228.407 117.593,228.282 117.266 C 228.175 116.988,228.480 116.638,229.137 116.284 C 229.698 115.982,230.158 115.621,230.158 115.482 C 230.158 115.343,230.475 115.229,230.864 115.229 C 231.252 115.229,231.935 114.891,232.380 114.479 C 232.825 114.066,233.429 113.728,233.723 113.728 C 234.017 113.728,234.903 113.401,235.693 113.001 C 236.483 112.601,237.323 112.348,237.559 112.439 C 237.795 112.529,238.151 112.398,238.349 112.147 C 238.697 111.708,239.038 111.612,242.311 111.037 C 243.136 110.892,244.284 110.642,244.861 110.481 C 246.193 110.111,253.349 110.080,256.114 110.433 M200.280 139.891 C 199.811 140.096,199.844 140.117,200.453 140.002 C 201.507 139.803,202.235 140.282,201.301 140.561 C 200.629 140.762,200.625 140.780,201.200 141.012 C 201.562 141.157,201.882 141.126,202.006 140.933 C 202.221 140.598,203.517 141.122,204.298 141.860 C 204.516 142.067,204.887 142.236,205.123 142.236 C 205.358 142.236,205.551 142.371,205.551 142.536 C 205.551 142.701,205.821 142.836,206.152 142.836 C 206.482 142.836,206.752 142.945,206.752 143.078 C 206.752 143.344,208.843 144.336,209.403 144.336 C 209.657 144.336,209.750 145.879,209.745 149.962 L 209.737 155.589 208.596 156.114 C 207.969 156.403,207.297 156.639,207.103 156.639 C 206.910 156.639,206.752 156.742,206.752 156.868 C 206.752 156.995,206.245 157.335,205.626 157.624 C 205.008 157.914,204.044 158.426,203.485 158.762 C 202.927 159.098,202.270 159.296,202.027 159.203 C 201.722 159.086,201.638 159.174,201.758 159.486 C 201.886 159.820,201.715 159.946,201.116 159.964 C 200.667 159.977,200.469 160.055,200.675 160.139 C 201.263 160.376,201.114 160.840,200.451 160.840 C 200.121 160.840,199.194 160.368,198.389 159.790 C 197.585 159.212,196.720 158.740,196.466 158.740 C 196.158 158.740,196.056 158.547,196.157 158.160 C 196.280 157.689,196.188 157.612,195.669 157.747 C 195.314 157.840,194.800 157.720,194.514 157.477 C 193.754 156.830,191.508 155.740,190.913 155.729 C 190.450 155.721,190.456 155.676,190.969 155.288 C 191.489 154.894,191.495 154.838,191.036 154.662 C 190.655 154.516,190.613 154.371,190.864 154.069 C 191.211 153.651,191.103 146.694,190.727 145.236 C 190.547 144.538,190.716 144.397,193.166 143.197 C 196.164 141.728,198.130 140.669,198.350 140.404 C 198.693 139.989,200.319 139.304,200.579 139.465 C 200.734 139.560,200.599 139.752,200.280 139.891 M225.356 154.393 C 225.356 154.856,225.186 155.139,224.906 155.139 C 224.656 155.139,224.456 155.406,224.456 155.739 C 224.456 156.069,224.355 156.340,224.231 156.341 C 223.962 156.344,223.256 157.797,223.256 158.349 C 223.256 158.564,223.053 158.740,222.806 158.740 C 222.558 158.740,222.356 158.915,222.356 159.129 C 222.356 159.342,221.782 160.457,221.080 161.605 C 220.379 162.753,219.545 164.185,219.227 164.787 C 218.867 165.471,218.495 165.823,218.237 165.724 C 217.924 165.604,217.872 165.756,218.022 166.354 C 218.146 166.849,218.096 167.142,217.887 167.142 C 217.704 167.142,217.554 167.479,217.554 167.892 C 217.554 168.359,217.384 168.642,217.104 168.642 C 216.854 168.642,216.654 168.909,216.654 169.242 C 216.654 169.850,216.174 170.015,215.576 169.613 C 215.396 169.492,215.005 168.747,214.707 167.957 C 214.408 167.168,214.050 166.451,213.909 166.364 C 213.768 166.277,213.653 165.944,213.653 165.624 C 213.653 165.303,213.518 165.041,213.353 165.041 C 213.188 165.041,213.051 164.805,213.049 164.516 C 213.043 163.834,212.376 161.926,211.960 161.400 C 211.122 160.343,211.216 156.501,212.088 156.131 C 213.426 155.564,215.743 154.839,216.219 154.839 C 216.463 154.839,216.897 154.714,217.183 154.561 C 217.775 154.245,221.060 153.814,223.631 153.714 C 225.287 153.649,225.356 153.677,225.356 154.393 M239.681 156.280 C 239.437 156.560,238.868 157.464,238.417 158.290 C 237.966 159.115,237.494 159.925,237.368 160.090 C 237.242 160.255,236.802 160.998,236.389 161.740 C 235.763 162.866,232.607 168.387,230.440 172.148 C 230.137 172.674,229.545 173.650,229.123 174.318 C 228.702 174.986,228.357 175.582,228.357 175.643 C 228.357 175.704,227.614 176.986,226.707 178.491 C 224.516 182.125,224.505 182.101,229.707 185.200 C 235.457 188.625,236.273 188.736,237.659 186.280 C 239.281 183.409,239.799 182.514,241.612 179.445 C 242.539 177.877,243.560 176.122,243.882 175.544 C 245.365 172.881,250.389 164.212,250.838 163.541 C 251.556 162.470,251.351 162.034,249.534 160.769 C 244.576 157.315,240.426 155.424,239.681 156.280 M242.911 157.697 C 243.571 158.104,244.347 158.437,244.636 158.438 C 244.925 158.439,245.164 158.541,245.167 158.665 C 245.171 158.788,245.846 159.289,246.668 159.777 C 247.490 160.265,248.162 160.762,248.162 160.882 C 248.162 161.002,248.425 161.183,248.747 161.285 C 249.126 161.406,249.268 161.637,249.151 161.943 C 249.045 162.219,249.176 162.530,249.466 162.693 C 250.005 162.994,250.150 163.841,249.662 163.841 C 249.497 163.841,249.362 164.028,249.362 164.257 C 249.362 164.762,248.841 165.780,247.937 167.042 C 247.566 167.561,247.262 168.133,247.262 168.313 C 247.262 168.494,247.127 168.642,246.962 168.642 C 246.797 168.642,246.662 168.916,246.662 169.252 C 246.662 169.587,246.459 169.939,246.212 170.034 C 245.964 170.129,245.758 170.429,245.755 170.700 C 245.751 170.971,245.484 171.530,245.161 171.943 C 244.839 172.356,244.571 172.803,244.568 172.938 C 244.564 173.073,244.224 173.626,243.811 174.167 C 243.398 174.708,243.061 175.368,243.061 175.634 C 243.061 175.899,242.723 176.454,242.311 176.867 C 241.898 177.280,241.560 177.826,241.560 178.081 C 241.560 178.336,241.425 178.545,241.260 178.545 C 241.095 178.545,240.960 178.819,240.960 179.154 C 240.960 179.489,240.758 179.841,240.510 179.936 C 240.263 180.031,240.060 180.365,240.060 180.677 C 240.060 180.990,239.925 181.245,239.760 181.245 C 239.595 181.245,239.460 181.448,239.460 181.695 C 239.460 181.943,239.354 182.146,239.226 182.146 C 239.097 182.146,238.836 182.517,238.646 182.971 C 238.195 184.052,237.269 185.570,236.984 185.696 C 236.860 185.751,236.759 185.983,236.759 186.211 C 236.759 187.371,234.539 187.340,232.953 186.158 C 232.428 185.767,231.854 185.446,231.678 185.446 C 231.502 185.446,231.358 185.311,231.358 185.146 C 231.358 184.981,231.096 184.846,230.775 184.846 C 230.455 184.846,230.110 184.711,230.008 184.546 C 229.906 184.381,229.613 184.246,229.358 184.246 C 229.102 184.246,228.628 183.908,228.303 183.496 C 227.979 183.083,227.521 182.746,227.285 182.746 C 227.049 182.746,226.857 182.476,226.857 182.146 C 226.857 181.481,226.392 181.332,226.155 181.920 C 226.062 182.151,225.995 182.101,225.980 181.788 C 225.967 181.509,226.092 181.197,226.257 181.095 C 226.422 180.993,226.557 180.648,226.557 180.327 C 226.557 179.602,227.060 179.561,227.263 180.270 C 227.346 180.559,227.337 180.267,227.243 179.622 C 227.097 178.619,227.143 178.475,227.564 178.637 C 227.939 178.781,228.057 178.649,228.057 178.085 C 228.057 177.678,228.192 177.344,228.357 177.344 C 228.522 177.344,228.657 177.129,228.657 176.866 C 228.657 176.602,228.961 175.963,229.332 175.444 C 229.995 174.519,230.795 173.131,231.868 171.043 C 232.165 170.465,232.509 169.947,232.633 169.892 C 232.757 169.837,232.858 169.601,232.858 169.367 C 232.858 169.134,232.993 168.942,233.158 168.942 C 233.323 168.942,233.458 168.735,233.458 168.483 C 233.458 168.230,233.661 167.945,233.908 167.850 C 234.156 167.755,234.359 167.355,234.359 166.960 C 234.359 166.565,234.494 166.242,234.659 166.242 C 234.824 166.242,234.959 165.978,234.959 165.657 C 234.959 165.335,235.296 164.708,235.709 164.263 C 236.122 163.818,236.459 163.270,236.459 163.047 C 236.459 162.823,236.578 162.641,236.724 162.641 C 236.870 162.641,237.076 162.404,237.181 162.116 C 237.420 161.463,238.529 159.439,239.252 158.335 C 239.751 157.574,240.671 156.991,241.410 156.968 C 241.575 156.962,242.251 157.291,242.911 157.697 M250.455 162.491 C 250.944 162.979,250.871 163.040,250.137 162.759 C 249.876 162.658,249.662 162.456,249.662 162.308 C 249.662 161.916,249.945 161.980,250.455 162.491 M201.141 163.415 C 201.729 163.960,201.928 164.382,201.816 164.840 C 201.728 165.198,201.733 165.323,201.828 165.116 C 202.181 164.348,202.271 164.416,205.476 167.843 C 206.178 168.593,206.752 169.351,206.752 169.527 C 206.752 169.703,207.089 170.140,207.502 170.499 C 207.914 170.857,208.252 171.329,208.252 171.547 C 208.252 171.765,208.387 171.943,208.552 171.943 C 208.717 171.943,208.852 172.136,208.852 172.372 C 208.852 172.607,209.021 172.984,209.227 173.208 C 209.434 173.433,209.750 173.881,209.931 174.205 C 210.111 174.529,210.408 175.064,210.591 175.394 C 210.774 175.724,211.144 176.534,211.414 177.194 C 211.683 177.854,212.027 178.629,212.178 178.916 C 212.329 179.202,212.453 179.692,212.453 180.004 C 212.453 180.316,212.656 180.740,212.903 180.945 C 213.151 181.151,213.353 181.699,213.353 182.165 C 213.353 182.630,213.488 183.094,213.653 183.196 C 213.818 183.298,213.953 183.886,213.953 184.504 C 213.953 185.121,214.073 185.755,214.219 185.911 C 215.167 186.931,215.167 200.766,214.219 201.785 C 214.073 201.942,213.953 202.576,213.953 203.193 C 213.953 203.811,213.818 204.399,213.653 204.501 C 213.488 204.603,213.353 204.944,213.353 205.259 C 213.353 205.776,212.813 207.245,212.116 208.623 C 211.972 208.910,211.853 209.416,211.853 209.748 C 211.853 210.081,211.751 210.353,211.627 210.353 C 211.503 210.353,211.005 211.197,210.519 212.228 C 210.033 213.260,209.494 214.254,209.319 214.439 C 208.293 215.524,207.652 216.405,207.651 216.731 C 207.651 216.937,206.981 217.847,206.161 218.755 C 205.342 219.662,204.667 220.507,204.661 220.631 C 204.656 220.755,203.741 221.741,202.628 222.821 C 200.446 224.940,199.893 225.079,198.568 223.844 C 198.220 223.520,197.818 223.256,197.673 223.256 C 197.528 223.256,197.499 222.972,197.609 222.626 C 197.774 222.105,197.710 222.028,197.237 222.178 C 196.545 222.397,194.877 220.557,192.255 216.681 C 191.296 215.263,190.317 213.866,190.079 213.575 C 189.842 213.284,189.647 212.853,189.647 212.617 C 189.647 212.381,189.532 212.117,189.391 212.030 C 189.251 211.943,188.900 211.125,188.613 210.212 C 188.326 209.299,187.969 208.552,187.819 208.552 C 187.669 208.552,187.547 208.223,187.547 207.820 C 187.547 207.417,187.412 207.004,187.247 206.902 C 187.082 206.800,186.947 206.396,186.947 206.005 C 186.947 205.614,186.744 205.092,186.497 204.844 C 186.249 204.597,186.047 203.910,186.047 203.318 C 186.047 202.727,185.922 202.008,185.769 201.721 C 184.987 200.255,185.006 186.047,185.789 186.047 C 185.931 186.047,186.051 185.473,186.056 184.771 C 186.061 184.070,186.264 183.234,186.506 182.913 C 186.748 182.593,186.947 182.087,186.947 181.788 C 186.947 181.490,187.082 181.245,187.247 181.245 C 187.412 181.245,187.547 180.848,187.547 180.363 C 187.547 179.877,187.682 179.397,187.847 179.295 C 188.012 179.193,188.147 178.791,188.147 178.402 C 188.147 178.013,188.256 177.649,188.390 177.594 C 188.706 177.464,190.248 174.344,190.248 173.835 C 190.248 173.619,190.370 173.443,190.519 173.443 C 190.668 173.443,191.498 172.339,192.364 170.990 C 194.080 168.314,195.270 167.077,195.910 167.305 C 196.189 167.404,196.275 167.274,196.177 166.900 C 196.078 166.518,196.487 165.944,197.520 165.021 C 198.338 164.289,199.226 163.455,199.495 163.166 C 200.122 162.492,200.150 162.496,201.141 163.415 M259.281 174.012 C 258.953 174.655,257.584 177.051,256.238 179.338 C 254.892 181.625,253.447 184.104,253.026 184.846 C 252.606 185.589,251.690 187.166,250.990 188.350 C 250.290 189.534,249.796 190.581,249.890 190.675 C 250.677 191.462,259.133 190.523,263.391 189.177 L 265.866 188.394 265.866 187.177 C 265.866 184.097,261.510 172.843,260.318 172.843 C 260.075 172.843,259.609 173.369,259.281 174.012 M260.654 174.975 C 260.509 175.697,260.561 175.871,260.885 175.747 C 261.344 175.571,262.866 178.188,262.866 179.155 C 262.866 179.460,263.001 179.793,263.166 179.895 C 263.331 179.997,263.467 180.309,263.468 180.588 C 263.469 180.867,263.671 181.482,263.918 181.955 C 264.164 182.428,264.366 183.264,264.366 183.813 C 264.366 184.362,264.501 184.894,264.666 184.996 C 265.189 185.319,265.046 187.942,264.516 187.738 C 264.242 187.633,264.066 187.738,264.066 188.006 C 264.066 188.310,263.739 188.447,263.016 188.447 C 262.438 188.447,261.965 188.582,261.965 188.747 C 261.965 188.912,261.594 189.048,261.140 189.049 C 260.686 189.050,259.953 189.240,259.511 189.471 C 258.668 189.910,253.048 190.275,251.842 189.968 L 251.170 189.797 252.192 187.847 C 252.753 186.774,253.444 185.454,253.726 184.913 C 254.131 184.138,254.375 183.967,254.877 184.108 C 255.361 184.243,255.410 184.214,255.080 183.987 C 254.634 183.680,255.482 181.257,256.039 181.249 C 256.163 181.247,256.264 181.037,256.264 180.783 C 256.264 180.350,256.456 180.047,257.389 179.006 C 257.596 178.776,257.764 178.383,257.764 178.134 C 257.764 177.884,257.899 177.596,258.065 177.494 C 258.230 177.392,258.365 177.047,258.365 176.726 C 258.365 176.406,258.567 176.144,258.815 176.144 C 259.062 176.144,259.265 175.941,259.265 175.694 C 259.265 175.446,259.400 175.244,259.565 175.244 C 259.730 175.244,259.865 174.974,259.865 174.644 C 259.865 174.290,260.065 174.044,260.353 174.044 C 260.738 174.044,260.801 174.239,260.654 174.975 M227.757 181.528 C 227.757 181.867,227.892 182.146,228.057 182.146 C 228.222 182.146,228.357 181.951,228.357 181.713 C 228.357 181.475,228.222 181.197,228.057 181.095 C 227.892 180.993,227.757 181.188,227.757 181.528 " stroke="none" fill="#2c1700" fill-rule="evenodd"></path><path id="path3" d="M0.000 150.038 L 0.000 300.075 200.000 300.075 L 400.000 300.075 400.000 150.038 L 400.000 0.000 200.000 0.000 L 0.000 0.000 0.000 150.038 M203.957 77.051 C 206.395 79.495,210.053 84.086,210.053 84.703 C 210.053 84.855,210.326 85.362,210.659 85.831 C 214.723 91.538,217.365 106.618,215.546 113.728 C 215.356 114.471,214.967 116.024,214.682 117.179 C 212.747 125.018,203.698 138.035,200.184 138.035 C 197.906 138.035,191.093 129.894,188.285 123.817 C 184.179 114.930,183.230 103.791,185.881 95.609 C 186.101 94.929,186.521 93.563,186.814 92.573 C 187.107 91.583,187.780 89.895,188.309 88.822 C 191.138 83.094,193.905 79.447,198.734 75.085 C 200.470 73.517,200.407 73.493,203.957 77.051 M158.890 109.939 C 162.044 110.734,164.854 111.644,165.818 112.183 C 166.133 112.360,167.251 112.916,168.302 113.419 C 170.525 114.482,175.810 118.093,176.047 118.709 C 176.136 118.940,176.366 119.130,176.559 119.130 C 176.974 119.130,180.413 122.616,181.847 124.489 C 185.965 129.869,187.951 134.237,190.140 142.733 C 190.415 143.799,189.182 145.163,187.730 145.397 C 187.052 145.506,185.214 145.939,183.646 146.359 C 176.661 148.230,164.769 147.050,158.053 143.818 C 145.757 137.902,138.205 128.776,134.731 115.634 C 133.769 111.996,134.234 111.092,137.339 110.570 C 137.969 110.464,138.914 110.246,139.440 110.086 C 144.022 108.687,153.637 108.615,158.890 109.939 M258.482 109.963 C 259.949 110.228,262.245 110.813,263.583 111.262 L 266.017 112.078 265.953 113.629 C 265.819 116.914,263.159 123.857,260.353 128.243 C 254.533 137.341,245.090 144.008,234.959 146.170 C 226.753 147.921,221.503 147.717,213.390 145.332 C 210.097 144.364,210.214 144.187,210.151 150.221 C 210.091 156.036,209.948 155.827,213.295 154.824 C 218.512 153.261,226.557 152.386,226.557 153.381 C 226.557 153.663,222.974 160.065,222.046 161.440 C 221.768 161.853,221.097 163.001,220.555 163.991 C 218.097 168.483,216.272 171.366,215.952 171.263 C 214.799 170.893,210.653 160.540,210.653 158.032 C 210.653 155.801,208.668 156.288,203.226 159.856 C 200.202 161.838,200.144 161.336,203.835 165.071 C 213.237 174.585,217.587 188.667,215.059 201.404 C 213.317 210.182,208.497 218.725,202.242 224.122 C 199.600 226.402,200.134 226.524,196.444 222.802 C 190.960 217.271,187.186 210.600,185.496 203.451 C 184.582 199.585,184.457 198.438,184.448 193.864 C 184.437 188.391,184.765 186.368,186.572 180.795 C 188.580 174.600,192.184 169.001,197.374 164.011 C 198.571 162.861,199.550 161.809,199.550 161.673 C 199.550 161.284,194.818 158.317,192.418 157.202 C 189.886 156.025,189.841 155.932,190.180 152.532 C 190.314 151.180,190.303 148.850,190.155 147.352 C 189.832 144.087,189.888 143.901,191.345 143.420 C 192.671 142.983,197.105 140.429,198.693 139.189 C 200.084 138.102,199.790 138.040,202.973 140.102 C 209.129 144.089,210.332 144.370,210.699 141.904 C 211.238 138.294,213.670 132.263,216.149 128.388 C 225.218 114.213,241.885 106.959,258.482 109.963 M182.829 153.490 C 183.856 153.753,185.101 154.091,185.596 154.242 C 186.092 154.392,187.074 154.606,187.780 154.716 C 189.931 155.054,190.569 156.313,189.798 158.699 C 189.551 159.464,189.027 161.170,188.634 162.491 C 187.398 166.639,185.280 170.687,182.175 174.834 C 181.911 175.186,181.493 175.774,181.245 176.139 C 180.298 177.539,176.659 180.979,174.194 182.806 C 173.368 183.417,172.515 184.073,172.297 184.264 C 171.311 185.124,163.480 188.723,161.590 189.184 C 160.435 189.466,159.220 189.813,158.890 189.956 C 156.032 191.193,144.112 191.097,139.385 189.798 C 137.734 189.345,136.021 188.909,135.577 188.829 C 133.382 188.435,133.820 184.269,136.754 177.644 C 137.156 176.737,137.665 175.574,137.885 175.060 C 138.268 174.166,139.944 171.519,141.948 168.642 C 147.286 160.978,158.369 154.605,169.092 153.034 C 171.829 152.633,180.621 152.925,182.829 153.490 M245.717 158.343 C 251.016 161.475,251.734 162.204,250.838 163.541 C 250.389 164.212,245.365 172.881,243.882 175.544 C 243.560 176.122,242.539 177.877,241.612 179.445 C 239.799 182.514,239.281 183.409,237.659 186.280 C 236.273 188.736,235.457 188.625,229.707 185.200 C 224.505 182.101,224.516 182.125,226.707 178.491 C 227.614 176.986,228.357 175.704,228.357 175.643 C 228.357 175.582,228.702 174.986,229.123 174.318 C 229.545 173.650,230.137 172.674,230.440 172.148 C 232.607 168.387,235.763 162.866,236.389 161.740 C 236.802 160.998,237.242 160.255,237.368 160.090 C 237.494 159.925,237.966 159.115,238.417 158.290 C 240.027 155.345,240.655 155.350,245.717 158.343 M261.917 175.169 C 263.983 179.315,265.866 185.043,265.866 187.177 L 265.866 188.394 263.391 189.177 C 259.133 190.523,250.677 191.462,249.890 190.675 C 249.796 190.581,250.290 189.534,250.990 188.350 C 251.690 187.166,252.606 185.589,253.026 184.846 C 253.447 184.104,254.892 181.625,256.238 179.338 C 257.584 177.051,258.953 174.655,259.281 174.012 C 260.139 172.330,260.604 172.534,261.917 175.169 " stroke="none" fill="#ffb701" fill-rule="evenodd"></path><path id="path4" d="M198.734 75.085 C 193.905 79.447,191.138 83.094,188.309 88.822 C 187.780 89.895,187.107 91.583,186.814 92.573 C 186.521 93.563,186.101 94.929,185.881 95.609 C 183.230 103.791,184.179 114.930,188.285 123.817 C 191.093 129.894,197.906 138.035,200.184 138.035 C 203.698 138.035,212.747 125.018,214.682 117.179 C 214.967 116.024,215.356 114.471,215.546 113.728 C 217.365 106.618,214.723 91.538,210.659 85.831 C 210.326 85.362,210.053 84.855,210.053 84.703 C 210.053 83.658,202.488 75.049,200.754 74.121 C 200.248 73.850,199.936 73.999,198.734 75.085 M203.161 77.357 C 204.454 78.643,206.017 80.429,206.634 81.326 C 207.251 82.223,207.865 83.095,207.999 83.264 C 208.133 83.433,208.583 83.995,208.998 84.514 C 209.413 85.033,209.752 85.679,209.752 85.949 C 209.752 86.219,209.943 86.513,210.175 86.603 C 210.408 86.692,210.678 87.083,210.776 87.473 C 210.874 87.862,211.135 88.361,211.356 88.582 C 211.758 88.984,212.907 91.770,213.373 93.473 C 213.509 93.968,213.769 94.914,213.952 95.574 C 216.247 103.848,215.943 112.059,213.076 119.280 C 212.945 119.610,212.594 120.656,212.296 121.605 C 211.999 122.554,211.642 123.331,211.504 123.331 C 211.366 123.331,211.253 123.541,211.253 123.798 C 211.253 124.314,210.023 126.626,209.114 127.819 C 208.794 128.239,207.828 129.538,206.967 130.705 C 205.179 133.130,203.856 134.734,203.644 134.734 C 203.564 134.734,202.914 135.339,202.200 136.079 C 200.781 137.548,200.204 137.707,199.190 136.909 C 197.884 135.882,193.545 131.283,192.890 130.233 C 192.633 129.820,191.825 128.537,191.094 127.382 C 189.644 125.089,187.547 120.585,187.547 119.765 C 187.547 119.481,187.424 119.122,187.275 118.965 C 186.820 118.489,186.112 115.809,185.454 112.078 C 185.115 110.153,185.104 102.586,185.438 100.825 C 185.579 100.083,185.784 98.935,185.894 98.275 C 186.004 97.614,186.204 96.804,186.338 96.474 C 186.803 95.328,187.547 92.651,187.547 92.125 C 187.547 91.834,187.741 91.435,187.978 91.239 C 188.215 91.042,188.493 90.519,188.595 90.077 C 188.698 89.634,189.078 88.774,189.440 88.165 C 189.802 87.556,190.705 86.038,191.448 84.791 C 192.191 83.544,192.899 82.523,193.023 82.522 C 193.147 82.521,193.248 82.407,193.248 82.269 C 193.248 81.698,198.560 76.048,199.741 75.362 C 200.618 74.852,200.677 74.886,203.161 77.357 M142.591 109.373 C 141.383 109.605,139.965 109.925,139.440 110.086 C 138.914 110.246,137.969 110.464,137.339 110.570 C 134.234 111.092,133.769 111.996,134.731 115.634 C 138.205 128.776,145.757 137.902,158.053 143.818 C 164.769 147.050,176.661 148.230,183.646 146.359 C 185.214 145.939,187.052 145.506,187.730 145.397 C 189.182 145.163,190.415 143.799,190.140 142.733 C 187.951 134.237,185.965 129.869,181.847 124.489 C 180.413 122.616,176.974 119.130,176.559 119.130 C 176.366 119.130,176.136 118.940,176.047 118.709 C 175.810 118.093,170.525 114.482,168.302 113.419 C 167.251 112.916,166.133 112.360,165.818 112.183 C 161.323 109.669,148.888 108.164,142.591 109.373 M155.889 110.107 C 161.879 111.247,163.863 111.981,170.932 115.672 C 171.750 116.099,173.706 117.623,174.311 118.305 C 174.567 118.593,174.921 118.830,175.097 118.830 C 175.810 118.830,180.568 123.859,182.676 126.841 C 184.143 128.917,186.593 133.578,187.377 135.784 C 187.671 136.609,188.022 137.554,188.158 137.884 C 188.417 138.511,188.668 139.754,188.945 141.785 C 189.035 142.446,189.221 143.105,189.359 143.252 C 189.937 143.866,188.058 144.656,184.846 145.147 C 184.269 145.235,183.634 145.437,183.437 145.595 C 183.240 145.753,181.214 146.096,178.936 146.357 C 172.956 147.042,167.797 146.402,160.840 144.114 C 159.230 143.585,155.249 141.664,154.492 141.051 C 154.197 140.812,153.369 140.272,152.651 139.851 C 149.593 138.055,144.840 133.791,143.176 131.350 C 142.926 130.983,142.545 130.575,142.329 130.443 C 142.112 130.311,141.935 130.028,141.935 129.814 C 141.935 129.600,141.680 129.194,141.367 128.911 C 140.410 128.045,136.848 120.571,136.133 117.929 C 134.485 111.837,134.393 112.085,138.715 110.991 C 140.074 110.648,141.971 110.259,142.930 110.127 C 143.890 109.996,144.747 109.817,144.834 109.729 C 145.261 109.302,153.064 109.569,155.889 110.107 M169.092 153.034 C 163.376 153.872,157.988 155.786,153.188 158.683 C 149.021 161.200,144.087 165.571,141.948 168.642 C 139.944 171.519,138.268 174.166,137.885 175.060 C 137.665 175.574,137.156 176.737,136.754 177.644 C 133.820 184.269,133.382 188.435,135.577 188.829 C 136.021 188.909,137.734 189.345,139.385 189.798 C 144.112 191.097,156.032 191.193,158.890 189.956 C 159.220 189.813,160.435 189.466,161.590 189.184 C 163.480 188.723,171.311 185.124,172.297 184.264 C 172.515 184.073,173.368 183.417,174.194 182.806 C 176.659 180.979,180.298 177.539,181.245 176.139 C 181.493 175.774,181.911 175.186,182.175 174.834 C 185.280 170.687,187.398 166.639,188.634 162.491 C 189.027 161.170,189.551 159.464,189.798 158.699 C 190.569 156.313,189.931 155.054,187.780 154.716 C 187.074 154.606,186.092 154.392,185.596 154.242 C 182.290 153.237,180.615 153.003,175.927 152.891 C 173.158 152.824,170.083 152.889,169.092 153.034 M182.969 154.252 C 184.249 154.599,186.107 155.102,187.097 155.371 C 188.087 155.640,188.965 155.948,189.047 156.055 C 189.130 156.162,189.400 156.326,189.647 156.420 C 190.006 156.557,189.991 156.597,189.572 156.615 C 189.195 156.633,189.047 156.891,189.047 157.535 C 189.047 158.558,188.505 161.037,188.112 161.811 C 187.966 162.098,187.847 162.489,187.847 162.681 C 187.847 163.024,185.054 169.374,184.618 170.023 C 184.496 170.204,184.005 170.947,183.527 171.673 C 182.669 172.976,182.257 173.502,179.895 176.307 C 178.841 177.559,175.739 180.702,174.503 181.770 C 174.264 181.977,173.928 182.146,173.756 182.146 C 173.584 182.146,173.443 182.247,173.441 182.371 C 173.440 182.494,173.006 182.866,172.477 183.196 C 169.777 184.880,168.725 185.491,168.042 185.775 C 167.629 185.946,166.414 186.498,165.341 187.001 C 162.656 188.261,162.504 188.313,159.790 188.903 C 158.470 189.190,156.987 189.547,156.494 189.695 C 153.125 190.711,140.157 189.993,138.800 188.716 C 138.643 188.568,138.077 188.447,137.542 188.447 C 137.007 188.447,136.486 188.312,136.384 188.147 C 136.282 187.982,135.925 187.847,135.590 187.847 C 134.515 187.847,135.230 182.854,136.814 179.295 C 139.638 172.946,141.486 170.095,145.461 165.956 C 146.657 164.710,147.636 163.590,147.636 163.466 C 147.637 163.342,147.783 163.241,147.962 163.241 C 148.252 163.241,150.168 161.809,151.634 160.495 C 152.933 159.331,160.045 155.874,161.838 155.535 C 162.362 155.436,162.926 155.255,163.091 155.134 C 163.256 155.013,163.796 154.841,164.291 154.751 C 164.786 154.661,165.799 154.433,166.542 154.244 C 170.814 153.156,178.934 153.160,182.969 154.252 " stroke="none" fill="#f9e49b" fill-rule="evenodd"></path></g></svg>